<?xml version="1.0" standalone="no"?>
<!DOCTYPE svg PUBLIC "-//W3C//DTD SVG 20010904//EN"
 "http://www.w3.org/TR/2001/REC-SVG-20010904/DTD/svg10.dtd">
<svg version="1.0" xmlns="http://www.w3.org/2000/svg"
 width="128.000000pt" height="128.000000pt" viewBox="0 0 128.000000 128.000000"
 preserveAspectRatio="xMidYMid meet">

<g transform="translate(0.000000,128.000000) scale(0.100000,-0.100000)"
fill="#000000" stroke="none">
<path d="M277 1173 c-92 -31 -167 -122 -183 -222 l-7 -41 207 0 c113 0 206 2
206 5 0 3 -30 66 -67 140 -75 149 -71 146 -156 118z"/>
<path d="M460 1183 c1 -5 31 -66 68 -138 l67 -130 113 -3 c61 -1 112 0 112 3
0 2 -30 66 -67 140 l-68 135 -112 0 c-62 0 -113 -3 -113 -7z"/>
<path d="M780 1183 c1 -5 31 -66 68 -138 l67 -130 139 -3 139 -3 -7 41 c-16
103 -91 193 -187 223 -52 17 -219 24 -219 10z"/>
<path d="M90 576 c0 -293 6 -323 85 -401 82 -83 102 -87 486 -83 318 3 325 3
369 27 61 32 97 67 128 126 27 50 27 50 30 313 l3 262 -550 0 -551 0 0 -244z
m595 36 c134 -80 154 -102 124 -138 -17 -20 -241 -154 -259 -154 -7 0 -22 7
-32 17 -16 14 -18 33 -18 162 0 116 3 151 16 169 8 12 21 22 27 22 7 0 71 -35
142 -78z"/>
</g>
</svg>
