<?xml version="1.0" standalone="no"?>
<!DOCTYPE svg PUBLIC "-//W3C//DTD SVG 20010904//EN"
 "http://www.w3.org/TR/2001/REC-SVG-20010904/DTD/svg10.dtd">
<svg version="1.0" xmlns="http://www.w3.org/2000/svg"
 width="128.000000pt" height="128.000000pt" viewBox="0 0 128.000000 128.000000"
 preserveAspectRatio="xMidYMid meet">

<g transform="translate(0.000000,128.000000) scale(0.100000,-0.100000)"
fill="#000000" stroke="none">
<path d="M526 1257 c-17 -17 -25 -40 -30 -85 -7 -59 -9 -63 -43 -77 -38 -16
-38 -16 -101 32 -64 49 -84 45 -164 -35 -80 -80 -84 -100 -35 -164 48 -63 48
-63 32 -101 -14 -34 -18 -36 -77 -43 -94 -11 -108 -29 -108 -144 0 -115 14
-133 108 -144 59 -7 63 -9 77 -43 16 -38 16 -38 -32 -101 -18 -24 -33 -55 -33
-69 0 -33 111 -149 152 -158 29 -7 40 -1 124 60 19 14 25 14 57 0 34 -14 36
-17 43 -77 11 -94 29 -108 144 -108 115 0 133 14 144 108 7 59 9 63 43 77 38
16 38 16 101 -32 24 -18 55 -33 69 -33 33 0 149 111 158 152 7 29 1 40 -60
124 -14 19 -14 25 0 57 14 34 17 36 77 43 94 11 108 29 108 144 0 115 -14 133
-108 144 -59 7 -63 9 -77 43 -16 38 -16 38 32 101 49 64 45 84 -35 164 -80 80
-100 84 -164 35 -63 -48 -63 -48 -101 -32 -34 14 -36 18 -43 77 -11 94 -29
108 -144 108 -82 0 -93 -2 -114 -23z m220 -372 c17 -7 50 -29 72 -49 142 -129
102 -364 -75 -442 -49 -22 -156 -22 -205 0 -192 84 -221 334 -53 462 69 52
177 64 261 29z"/>
</g>
</svg>
