<?xml version="1.0" standalone="no"?>
<!DOCTYPE svg PUBLIC "-//W3C//DTD SVG 20010904//EN"
 "http://www.w3.org/TR/2001/REC-SVG-20010904/DTD/svg10.dtd">
<svg version="1.0" xmlns="http://www.w3.org/2000/svg"
 width="128.000000pt" height="128.000000pt" viewBox="0 0 128.000000 128.000000"
 preserveAspectRatio="xMidYMid meet">

<g transform="translate(0.000000,128.000000) scale(0.100000,-0.100000)"
fill="#000000" stroke="none">
<path d="M456 1145 c-142 -50 -192 -240 -95 -359 111 -133 341 -83 389 85 24
81 3 156 -60 219 -66 67 -148 86 -234 55z m143 -83 c100 -51 106 -186 11 -250
-29 -20 -44 -23 -88 -20 -45 4 -59 10 -89 41 -31 30 -37 44 -41 89 -3 44 0 59
20 88 27 40 79 70 123 70 17 0 45 -8 64 -18z"/>
<path d="M353 620 c-132 -28 -219 -132 -231 -277 -9 -110 39 -189 128 -213 22
-6 99 -9 171 -8 113 3 133 6 143 21 8 12 8 22 0 35 -9 14 -32 18 -155 22 -85
3 -153 10 -165 17 -33 19 -47 66 -41 135 7 75 43 132 107 168 41 23 58 25 184
28 81 3 164 -1 198 -8 67 -13 88 -4 88 35 0 17 -9 27 -32 36 -40 15 -334 22
-395 9z"/>
<path d="M1015 611 c-16 -10 -105 -95 -197 -188 l-168 -169 0 -73 c0 -108 3
-111 108 -111 l88 0 182 183 c170 172 182 186 182 220 0 30 -8 47 -42 83 -41
45 -85 74 -110 74 -7 0 -26 -9 -43 -19z m115 -136 c0 -7 -9 -20 -20 -30 -20
-18 -21 -18 -61 21 l-40 39 27 23 27 23 33 -32 c19 -18 34 -38 34 -44z m-138
-72 l38 -37 -107 -108 c-103 -104 -109 -108 -150 -108 -43 0 -43 0 -43 36 0
33 10 48 107 145 59 60 109 109 112 109 3 0 22 -17 43 -37z"/>
</g>
</svg>
