<?xml version="1.0" standalone="no"?>
<!DOCTYPE svg PUBLIC "-//W3C//DTD SVG 20010904//EN"
 "http://www.w3.org/TR/2001/REC-SVG-20010904/DTD/svg10.dtd">
<svg version="1.0" xmlns="http://www.w3.org/2000/svg"
 width="128.000000pt" height="128.000000pt" viewBox="0 0 128.000000 128.000000"
 preserveAspectRatio="xMidYMid meet">

<g transform="translate(0.000000,128.000000) scale(0.100000,-0.100000)"
fill="#000000" stroke="none">
<path d="M554 1221 c-325 -51 -547 -358 -490 -678 8 -45 25 -106 38 -135 l24
-53 -38 -125 c-57 -189 -46 -200 142 -142 l125 38 53 -24 c29 -13 90 -30 135
-38 290 -52 577 128 661 414 90 306 -95 639 -404 726 -70 19 -180 27 -246 17z
m177 -111 c177 -34 327 -177 374 -355 65 -251 -94 -513 -350 -580 -110 -28
-228 -14 -336 40 l-50 26 -86 -26 c-47 -15 -87 -24 -90 -22 -2 3 7 43 22 90
l25 84 -31 67 c-87 187 -51 396 94 541 118 118 268 165 428 135z"/>
</g>
</svg>
