<?xml version="1.0" standalone="no"?>
<!DOCTYPE svg PUBLIC "-//W3C//DTD SVG 20010904//EN"
 "http://www.w3.org/TR/2001/REC-SVG-20010904/DTD/svg10.dtd">
<svg version="1.0" xmlns="http://www.w3.org/2000/svg"
 width="128.000000pt" height="128.000000pt" viewBox="0 0 128.000000 128.000000"
 preserveAspectRatio="xMidYMid meet">

<g transform="translate(0.000000,128.000000) scale(0.100000,-0.100000)"
fill="#000000" stroke="none">
<path d="M289 1147 c-19 -12 -44 -42 -57 -67 -23 -45 -23 -46 -20 -425 3 -363
4 -382 24 -415 25 -43 87 -80 134 -80 46 0 86 21 187 98 l82 62 101 -74 c110
-82 148 -96 213 -76 52 15 93 56 107 109 7 28 10 159 8 409 -3 349 -4 369 -24
402 -11 19 -35 45 -54 57 -32 23 -38 23 -350 23 -312 0 -318 0 -351 -23z m656
-63 c42 -16 45 -45 45 -424 l0 -362 -29 -29 c-17 -16 -40 -29 -54 -29 -16 0
-66 30 -133 80 -70 51 -117 80 -134 80 -17 0 -64 -29 -134 -80 -67 -50 -117
-80 -133 -80 -14 0 -37 13 -54 29 l-29 29 0 362 c0 299 3 366 15 390 8 15 20
30 27 33 19 8 593 8 613 1z"/>
<path d="M456 934 c-19 -19 -20 -36 -4 -52 17 -17 359 -17 376 0 16 16 15 33
-4 52 -23 24 -345 24 -368 0z"/>
</g>
</svg>
