<?xml version="1.0" standalone="no"?>
<!DOCTYPE svg PUBLIC "-//W3C//DTD SVG 20010904//EN"
 "http://www.w3.org/TR/2001/REC-SVG-20010904/DTD/svg10.dtd">
<svg version="1.0" xmlns="http://www.w3.org/2000/svg"
 width="128.000000pt" height="128.000000pt" viewBox="0 0 128.000000 128.000000"
 preserveAspectRatio="xMidYMid meet">

<g transform="translate(0.000000,128.000000) scale(0.100000,-0.100000)"
fill="#000000" stroke="none">
<path d="M309 1126 c-90 -32 -155 -93 -198 -186 -22 -47 -26 -69 -26 -150 1
-111 23 -181 80 -248 58 -67 453 -402 475 -402 19 0 404 323 461 386 160 179
119 469 -83 579 -41 22 -69 30 -128 33 -90 5 -142 -13 -209 -73 l-41 -37 -41
37 c-60 54 -112 75 -189 74 -36 0 -81 -6 -101 -13z m180 -92 c22 -8 62 -40 89
-70 27 -30 55 -54 62 -54 7 0 35 24 62 54 80 88 166 108 263 62 60 -28 87 -56
115 -118 42 -96 35 -194 -20 -281 -24 -38 -402 -377 -420 -377 -18 0 -397 340
-420 377 -55 87 -62 185 -20 281 28 62 55 90 115 118 58 28 118 30 174 8z"/>
</g>
</svg>
