<?xml version="1.0" standalone="no"?>
<!DOCTYPE svg PUBLIC "-//W3C//DTD SVG 20010904//EN"
 "http://www.w3.org/TR/2001/REC-SVG-20010904/DTD/svg10.dtd">
<svg version="1.0" xmlns="http://www.w3.org/2000/svg"
 width="128.000000pt" height="128.000000pt" viewBox="0 0 128.000000 128.000000"
 preserveAspectRatio="xMidYMid meet">

<g transform="translate(0.000000,128.000000) scale(0.100000,-0.100000)"
fill="#000000" stroke="none">
<path d="M501 1265 c-178 -39 -348 -172 -429 -336 -70 -142 -88 -279 -56 -422
79 -347 414 -565 758 -492 340 72 563 418 491 759 -72 342 -420 565 -764 491z
m300 -51 c199 -59 355 -216 415 -419 23 -76 23 -218 1 -302 -16 -61 -68 -177
-85 -186 -4 -3 -23 23 -41 59 -40 77 -122 162 -199 205 -31 18 -58 33 -60 35
-2 1 13 23 32 48 39 51 51 95 49 173 -7 233 -301 345 -468 178 -94 -94 -107
-249 -29 -351 19 -25 34 -47 32 -48 -2 -2 -29 -17 -60 -35 -77 -43 -159 -128
-199 -205 -18 -36 -37 -62 -41 -59 -17 9 -69 125 -85 186 -22 84 -22 226 1
302 69 233 262 402 501 439 51 7 179 -3 236 -20z m-41 -206 c198 -120 112
-428 -120 -428 -232 0 -318 308 -120 428 46 27 63 32 120 32 57 0 74 -5 120
-32z m-224 -454 c53 -22 148 -22 210 1 l51 18 59 -32 c99 -53 189 -153 221
-247 15 -45 15 -45 -13 -76 -49 -51 -156 -115 -239 -144 -114 -39 -256 -39
-370 0 -83 29 -190 93 -239 144 -28 31 -28 31 -13 76 32 92 115 187 215 243
66 38 67 38 118 17z"/>
</g>
</svg>
