<?xml version="1.0" standalone="no"?>
<!DOCTYPE svg PUBLIC "-//W3C//DTD SVG 20010904//EN"
 "http://www.w3.org/TR/2001/REC-SVG-20010904/DTD/svg10.dtd">
<svg version="1.0" xmlns="http://www.w3.org/2000/svg"
 width="512.000000pt" height="512.000000pt" viewBox="0 0 512.000000 512.000000"
 preserveAspectRatio="xMidYMid meet">

<g transform="translate(0.000000,512.000000) scale(0.100000,-0.100000)"
fill="#000000" stroke="none">
<path d="M2012 4472 c2 -4 174 -196 383 -425 l380 -417 169 0 168 0 -18 28
c-9 15 -137 206 -282 425 l-265 397 -269 0 c-149 0 -268 -4 -266 -8z"/>
<path d="M3352 4057 l283 -426 418 -1 418 0 -6 38 c-64 379 -339 681 -710 778
-94 25 -118 27 -393 31 l-294 6 284 -426z"/>
<path d="M3211 3153 c25 -27 318 -348 653 -715 334 -368 610 -668 612 -668 2
0 4 322 4 715 l0 715 -656 0 -657 0 44 -47z"/>
</g>
</svg>
