<?xml version="1.0" standalone="no"?>
<!DOCTYPE svg PUBLIC "-//W3C//DTD SVG 20010904//EN"
 "http://www.w3.org/TR/2001/REC-SVG-20010904/DTD/svg10.dtd">
<svg version="1.0" xmlns="http://www.w3.org/2000/svg"
 width="128.000000pt" height="128.000000pt" viewBox="0 0 128.000000 128.000000"
 preserveAspectRatio="xMidYMid meet">

<g transform="translate(0.000000,128.000000) scale(0.100000,-0.100000)"
fill="#000000" stroke="none">
<path d="M620 999 c-245 -82 -462 -156 -482 -165 -47 -21 -66 -61 -48 -103 10
-24 44 -46 188 -123 98 -51 184 -94 192 -96 8 -1 69 52 135 118 66 66 127 120
135 120 20 0 40 -20 40 -40 0 -8 -56 -71 -125 -140 l-124 -124 33 -61 c18 -33
63 -117 101 -187 55 -104 73 -129 97 -137 32 -11 66 -2 86 22 16 19 332 964
332 993 0 12 -9 33 -21 48 -16 20 -29 26 -57 25 -20 0 -237 -68 -482 -150z"/>
</g>
</svg>
