<?xml version="1.0" standalone="no"?>
<!DOCTYPE svg PUBLIC "-//W3C//DTD SVG 20010904//EN"
 "http://www.w3.org/TR/2001/REC-SVG-20010904/DTD/svg10.dtd">
<svg version="1.0" xmlns="http://www.w3.org/2000/svg"
 width="128.000000pt" height="128.000000pt" viewBox="0 0 128.000000 128.000000"
 preserveAspectRatio="xMidYMid meet">

<g transform="translate(0.000000,128.000000) scale(0.100000,-0.100000)"
fill="#000000" stroke="none">
<path d="M646 1215 c-8 -23 4 -45 28 -49 176 -34 248 -69 340 -166 103 -110
146 -213 146 -355 0 -150 -49 -271 -152 -373 -102 -103 -223 -152 -373 -152
-135 0 -253 47 -355 140 -58 53 -71 58 -90 35 -19 -23 -2 -52 62 -106 115 -96
241 -142 388 -142 332 1 593 263 592 593 0 230 -125 432 -329 534 -101 51
-244 73 -257 41z"/>
<path d="M383 1176 c-78 -38 -87 -47 -78 -76 9 -27 31 -25 106 9 35 16 72 31
82 35 40 13 27 66 -17 66 -12 0 -54 -15 -93 -34z"/>
<path d="M142 967 c-48 -76 -67 -127 -55 -145 22 -35 46 -19 90 58 58 101 57
98 43 115 -22 27 -49 17 -78 -28z"/>
<path d="M610 821 c-5 -11 -10 -47 -10 -80 l0 -61 -61 0 c-69 0 -99 -12 -99
-40 0 -28 30 -40 99 -40 l61 0 0 -61 c0 -69 12 -99 40 -99 28 0 40 30 40 99
l0 61 61 0 c69 0 99 12 99 40 0 28 -30 40 -99 40 l-61 0 0 61 c0 69 -12 99
-40 99 -11 0 -24 -9 -30 -19z"/>
<path d="M56 664 c-9 -8 -16 -17 -16 -19 0 -27 24 -164 31 -177 13 -25 56 -23
64 2 3 11 4 24 1 28 -3 5 -9 44 -15 87 -11 91 -30 114 -65 79z"/>
</g>
</svg>
