<?xml version="1.0" standalone="no"?>
<!DOCTYPE svg PUBLIC "-//W3C//DTD SVG 20010904//EN"
 "http://www.w3.org/TR/2001/REC-SVG-20010904/DTD/svg10.dtd">
<svg version="1.0" xmlns="http://www.w3.org/2000/svg"
 width="128.000000pt" height="128.000000pt" viewBox="0 0 128.000000 128.000000"
 preserveAspectRatio="xMidYMid meet">

<g transform="translate(0.000000,128.000000) scale(0.100000,-0.100000)"
fill="#000000" stroke="none">
<path d="M276 1069 c-55 -44 -56 -48 -56 -429 0 -381 1 -385 56 -429 58 -45
82 -37 414 150 168 94 315 181 327 192 51 46 51 128 0 174 -12 11 -159 98
-327 192 -332 187 -356 195 -414 150z m407 -208 c244 -137 308 -178 313 -197
15 -59 10 -63 -313 -245 -168 -95 -319 -175 -334 -177 -18 -3 -34 3 -48 17
-21 21 -21 29 -21 381 0 352 0 360 21 381 14 14 30 20 48 17 15 -2 166 -82
334 -177z"/>
</g>
</svg>
